<mxfile host="drawio-plugin" modified="2022-08-01T19:52:03.002Z" agent="5.0 (Windows NT 6.2; Win64; x64) AppleWebKit/537.36 (KHTML, like Gecko) Chrome/98.0.4758.102 Safari/537.36" etag="RXJRMblnF5UCwoXaRMKG" version="15.5.4" type="embed"><diagram id="mBz3AGuGxKc1HoNxblct" name="team"><mxGraphModel dx="714" dy="464" grid="1" gridSize="10" guides="1" tooltips="1" connect="1" arrows="1" fold="1" page="1" pageScale="1" pageWidth="850" pageHeight="1100" math="0" shadow="0"><root><mxCell id="0"/><mxCell id="1" parent="0"/><mxCell id="146" value="" style="group" parent="1" vertex="1" connectable="0"><mxGeometry x="680" y="40" width="120" height="120" as="geometry"/></mxCell><mxCell id="120" value="" style="group;movable=0;resizable=0;rotatable=0;deletable=0;editable=0;connectable=0;" parent="146" vertex="1" connectable="0"><mxGeometry width="120" height="120" as="geometry"/></mxCell><mxCell id="53" value="cosmin" style="rounded=0;whiteSpace=wrap;html=1;fontStyle=1;" parent="146" vertex="1"><mxGeometry width="120" height="40" as="geometry"/></mxCell><mxCell id="144" value="product owner" style="rounded=0;whiteSpace=wrap;html=1;fillColor=#dae8fc;strokeColor=#6c8ebf;fontStyle=1;gradientColor=#7ea6e0;" parent="146" vertex="1"><mxGeometry y="40" width="120" height="40" as="geometry"/></mxCell><mxCell id="145" value="agile coach" style="rounded=0;whiteSpace=wrap;html=1;fillColor=#b0e3e6;strokeColor=#0e8088;fontStyle=1;" parent="146" vertex="1"><mxGeometry y="80" width="119.99999999999999" height="40" as="geometry"/></mxCell><mxCell id="147" value="" style="group" parent="1" vertex="1" connectable="0"><mxGeometry x="240" y="440" width="160" height="80" as="geometry"/></mxCell><mxCell id="56" value="designer" style="rounded=0;whiteSpace=wrap;html=1;fillColor=#ffcd28;strokeColor=#d79b00;fontStyle=1;gradientColor=#ffa500;" parent="147" vertex="1"><mxGeometry width="120" height="40" as="geometry"/></mxCell><mxCell id="57" value="5000" style="rounded=0;whiteSpace=wrap;html=1;fontStyle=1" parent="147" vertex="1"><mxGeometry x="120" width="40" height="40" as="geometry"/></mxCell><mxCell id="58" value="tester" style="rounded=0;whiteSpace=wrap;html=1;fillColor=#d5e8d4;strokeColor=#82b366;fontStyle=1;gradientColor=#97d077;" parent="147" vertex="1"><mxGeometry y="40" width="120" height="40" as="geometry"/></mxCell><mxCell id="59" value="5000" style="rounded=0;whiteSpace=wrap;html=1;fontStyle=1" parent="147" vertex="1"><mxGeometry x="120" y="40" width="40" height="40" as="geometry"/></mxCell><mxCell id="157" value="" style="group" parent="1" vertex="1" connectable="0"><mxGeometry x="40" y="440" width="160" height="200" as="geometry"/></mxCell><mxCell id="155" value="" style="group" parent="157" vertex="1" connectable="0"><mxGeometry x="120" width="40" height="200" as="geometry"/></mxCell><mxCell id="41" value="3000" style="rounded=0;whiteSpace=wrap;html=1;fontStyle=1" parent="155" vertex="1"><mxGeometry width="40" height="40" as="geometry"/></mxCell><mxCell id="42" value="4000" style="rounded=0;whiteSpace=wrap;html=1;fontStyle=1" parent="155" vertex="1"><mxGeometry y="40" width="40" height="40" as="geometry"/></mxCell><mxCell id="43" value="6000" style="rounded=0;whiteSpace=wrap;html=1;fontStyle=1" parent="155" vertex="1"><mxGeometry y="80" width="40" height="40" as="geometry"/></mxCell><mxCell id="44" value="15000" style="rounded=0;whiteSpace=wrap;html=1;fontStyle=1" parent="155" vertex="1"><mxGeometry y="160" width="40" height="40" as="geometry"/></mxCell><mxCell id="45" value="10000" style="rounded=0;whiteSpace=wrap;html=1;fontStyle=1" parent="155" vertex="1"><mxGeometry y="120" width="40" height="40" as="geometry"/></mxCell><mxCell id="2" value="intern" style="rounded=0;whiteSpace=wrap;html=1;fontStyle=1" parent="157" vertex="1"><mxGeometry width="119.99999999999999" height="40" as="geometry"/></mxCell><mxCell id="3" value="junior" style="rounded=0;whiteSpace=wrap;html=1;fillColor=#ffff88;strokeColor=#36393d;fontStyle=1" parent="157" vertex="1"><mxGeometry y="40" width="119.99999999999999" height="40" as="geometry"/></mxCell><mxCell id="4" value="senior" style="rounded=0;whiteSpace=wrap;html=1;strokeColor=#36393d;fontStyle=1;fillColor=#808080;" parent="157" vertex="1"><mxGeometry y="160" width="119.99999999999999" height="40" as="geometry"/></mxCell><mxCell id="5" value="regular" style="rounded=0;whiteSpace=wrap;html=1;fillColor=#cdeb8b;strokeColor=#36393d;fontStyle=1;" parent="157" vertex="1"><mxGeometry y="80" width="119.99999999999999" height="40" as="geometry"/></mxCell><mxCell id="6" value="regular 2" style="rounded=0;whiteSpace=wrap;html=1;strokeColor=#36393d;fontStyle=1;fillColor=#FFCC99;" parent="157" vertex="1"><mxGeometry y="120" width="119.99999999999999" height="40" as="geometry"/></mxCell><mxCell id="158" value="" style="group" parent="1" vertex="1" connectable="0"><mxGeometry x="440" y="440" width="160" height="200" as="geometry"/></mxCell><mxCell id="133" value="business analyst" style="rounded=0;whiteSpace=wrap;html=1;fillColor=#f5f5f5;strokeColor=#666666;fontStyle=1;fontColor=#333333;" parent="158" vertex="1"><mxGeometry y="160" width="119.99999999999999" height="40" as="geometry"/></mxCell><mxCell id="134" value="8000" style="rounded=0;whiteSpace=wrap;html=1;fontStyle=1" parent="158" vertex="1"><mxGeometry x="120" y="160" width="40" height="40" as="geometry"/></mxCell><mxCell id="139" value="8000" style="rounded=0;whiteSpace=wrap;html=1;fontStyle=1" parent="158" vertex="1"><mxGeometry x="120" width="40" height="40" as="geometry"/></mxCell><mxCell id="140" value="8000" style="rounded=0;whiteSpace=wrap;html=1;fontStyle=1" parent="158" vertex="1"><mxGeometry x="120" y="40" width="40" height="40" as="geometry"/></mxCell><mxCell id="141" value="10000" style="rounded=0;whiteSpace=wrap;html=1;fontStyle=1" parent="158" vertex="1"><mxGeometry x="120" y="120" width="40" height="40" as="geometry"/></mxCell><mxCell id="142" value="15000" style="rounded=0;whiteSpace=wrap;html=1;fontStyle=1" parent="158" vertex="1"><mxGeometry x="120" y="80" width="40" height="40" as="geometry"/></mxCell><mxCell id="136" value="scrum master" style="rounded=0;whiteSpace=wrap;html=1;fillColor=#e6d0de;strokeColor=#996185;fontStyle=1;gradientColor=#d5739d;" parent="158" vertex="1"><mxGeometry y="40" width="119.99999999999999" height="40" as="geometry"/></mxCell><mxCell id="138" value="agile coach" style="rounded=0;whiteSpace=wrap;html=1;fillColor=#b0e3e6;strokeColor=#0e8088;fontStyle=1;" parent="158" vertex="1"><mxGeometry y="80" width="119.99999999999999" height="40" as="geometry"/></mxCell><mxCell id="137" value="manager" style="rounded=0;whiteSpace=wrap;html=1;fillColor=#f8cecc;strokeColor=#b85450;fontStyle=1;gradientColor=#ea6b66;" parent="158" vertex="1"><mxGeometry y="120" width="119.99999999999999" height="40" as="geometry"/></mxCell><mxCell id="143" value="product owner" style="rounded=0;whiteSpace=wrap;html=1;fillColor=#dae8fc;strokeColor=#6c8ebf;fontStyle=1;gradientColor=#7ea6e0;" parent="158" vertex="1"><mxGeometry width="120" height="40" as="geometry"/></mxCell><mxCell id="79" value="Green" style="rounded=0;whiteSpace=wrap;html=1;fontStyle=1;gradientColor=#d5739d;fillColor=#e6d0de;strokeColor=#996185;" parent="1" vertex="1"><mxGeometry x="200" y="80" width="120" height="40" as="geometry"/></mxCell><mxCell id="83" value="book-info-service" style="rounded=0;whiteSpace=wrap;html=1;fontStyle=1" parent="1" vertex="1"><mxGeometry x="200" y="40" width="120" height="40" as="geometry"/></mxCell><mxCell id="149" value="Red" style="rounded=0;whiteSpace=wrap;html=1;fontStyle=1;gradientColor=#d5739d;fillColor=#e6d0de;strokeColor=#996185;" parent="1" vertex="1"><mxGeometry x="40" y="80" width="120" height="40" as="geometry"/></mxCell><mxCell id="153" value="ratings-data-service" style="rounded=0;whiteSpace=wrap;html=1;fontStyle=1" parent="1" vertex="1"><mxGeometry x="40" y="40" width="120" height="40" as="geometry"/></mxCell><mxCell id="78" value="Blue" style="rounded=0;whiteSpace=wrap;html=1;fontStyle=1;gradientColor=#d5739d;fillColor=#e6d0de;strokeColor=#996185;" parent="1" vertex="1"><mxGeometry x="359" y="80" width="122" height="40" as="geometry"/></mxCell><mxCell id="82" value="book-catalog-service" style="rounded=0;whiteSpace=wrap;fontStyle=1" parent="1" vertex="1"><mxGeometry x="359" y="40" width="122" height="40" as="geometry"/></mxCell></root></mxGraphModel></diagram></mxfile>